<?xml version="1.0" standalone="no"?>
<!DOCTYPE svg PUBLIC "-//W3C//DTD SVG 20010904//EN"
 "http://www.w3.org/TR/2001/REC-SVG-20010904/DTD/svg10.dtd">
<svg version="1.0" xmlns="http://www.w3.org/2000/svg"
 width="474.000000pt" height="474.000000pt" viewBox="0 0 474.000000 474.000000"
 preserveAspectRatio="xMidYMid meet">
<metadata>
Created by potrace 1.14, written by Peter Selinger 2001-2017
</metadata>
<g transform="translate(0.000000,474.000000) scale(0.100000,-0.100000)"
fill="#000000" stroke="none">
<path d="M3430 4730 c0 -5 -12 -10 -27 -10 -52 0 -217 -51 -310 -95 -177 -83
-216 -117 -751 -650 -493 -489 -593 -596 -660 -708 -167 -276 -208 -651 -106
-955 72 -214 239 -453 353 -504 161 -73 345 46 345 222 0 70 -20 112 -90 197
-197 236 -227 523 -83 781 24 43 160 185 563 588 527 528 532 532 616 573 125
60 192 74 330 68 187 -7 313 -61 439 -188 129 -128 193 -280 194 -459 1 -151
-30 -256 -109 -375 -20 -31 -146 -165 -280 -299 -269 -269 -286 -292 -285
-396 1 -178 184 -293 346 -216 67 31 559 527 628 632 85 130 177 358 177 440
0 13 5 24 10 24 6 0 10 67 10 180 0 113 -4 180 -10 180 -5 0 -10 11 -10 24 0
92 -118 366 -209 486 -103 136 -265 271 -416 347 -74 38 -234 90 -303 99 -29
3 -52 10 -52 15 0 5 -70 9 -155 9 -97 0 -155 -4 -155 -10z"/>
<path d="M2663 2949 c-58 -11 -94 -31 -135 -77 -41 -46 -62 -99 -62 -162 0
-70 20 -114 91 -197 187 -222 223 -490 101 -743 -41 -84 -47 -90 -547 -594
-278 -279 -530 -526 -559 -548 -125 -93 -261 -133 -431 -126 -173 8 -316 71
-435 193 -213 216 -253 548 -98 805 26 41 119 143 290 314 277 278 296 304
295 407 -2 177 -187 291 -348 215 -67 -32 -558 -527 -628 -634 -84 -127 -177
-357 -177 -438 0 -13 -4 -24 -10 -24 -6 0 -10 -67 -10 -180 0 -113 4 -180 10
-180 6 0 10 -11 10 -24 0 -45 50 -201 95 -293 104 -217 264 -388 477 -510 94
-54 270 -117 356 -129 28 -3 52 -10 52 -15 0 -5 70 -9 155 -9 97 0 155 4 155
10 0 6 12 10 28 10 98 0 339 96 479 191 106 72 1116 1079 1193 1189 314 451
274 1057 -95 1448 -85 90 -156 119 -252 101z"/>
</g>
</svg>
